<svg width="1402" height="145" viewBox="0 0 1402 145" fill="none" xmlns="http://www.w3.org/2000/svg">
<path d="M1360.37 101.887C1360.37 98.6645 1358.96 96.0867 1356.12 94.1533C1353.29 92.0911 1348.65 90.6089 1342.2 89.7067L1317.45 86.0333C1298.38 83.0689 1284.46 78.1067 1275.69 71.1467C1267.06 64.1867 1262.74 54.6489 1262.74 42.5333C1262.74 29.1289 1268.8 18.6889 1280.91 11.2133C1293.16 3.73778 1309.98 0 1331.37 0C1370.94 0 1393.11 13.8556 1397.88 41.5667L1358.25 45.4333C1356.19 39.7622 1352.96 35.7022 1348.58 33.2533C1344.2 30.6756 1338.01 29.3867 1330.02 29.3867C1321.51 29.3867 1314.94 30.4178 1310.3 32.48C1305.79 34.5422 1303.53 37.5067 1303.53 41.3733C1303.53 44.5956 1304.76 47.0444 1307.21 48.72C1309.66 50.3956 1314.17 51.7489 1320.74 52.78L1350.9 57.6133C1368.82 60.4489 1381.77 65.2822 1389.76 72.1133C1397.75 78.8156 1401.75 88.2889 1401.75 100.533C1401.75 115.227 1395.82 126.311 1383.96 133.787C1372.1 141.262 1354.64 145 1331.57 145C1286.2 145 1262.03 128.889 1259.07 96.6667H1300.05C1302.5 109.298 1313.07 115.613 1331.76 115.613C1350.84 115.613 1360.37 111.038 1360.37 101.887Z" fill="white"/>
<path d="M1125.74 141.52H1083.4L1143.34 3.48013H1192.06L1251.99 141.52H1208.68L1198.44 116.387H1135.41L1125.74 141.52ZM1167.12 34.9935L1147.4 85.4535H1186.84L1167.12 34.9935Z" fill="white"/>
<path d="M920.223 3.48013H957.343L1026.36 86.4201V3.48013H1065.8V141.52H1028.68L959.663 58.5801V141.52H920.223V3.48013Z" fill="white"/>
<path d="M776.46 141.52H734.12L794.053 3.48013H842.773L902.707 141.52H859.4L849.153 116.387H786.127L776.46 141.52ZM817.833 34.9935L798.113 85.4535H837.553L817.833 34.9935Z" fill="white"/>
<path d="M539.975 3.48013H587.148L628.715 96.8601L670.088 3.48013H716.295V141.52H678.015V61.0935L643.021 141.52H612.475L577.675 61.4801V141.52H539.975V3.48013Z" fill="white"/>
<path d="M466.908 3.48013H508.668V141.52H466.908V3.48013Z" fill="white"/>
<path d="M323.145 141.52H280.805L340.739 3.48013H389.459L449.392 141.52H406.085L395.839 116.387H332.812L323.145 141.52ZM364.519 34.9935L344.799 85.4535H384.239L364.519 34.9935Z" fill="white"/>
<path d="M154.063 3.48013H195.823V107.687H274.316L270.063 141.52H154.063V3.48013Z" fill="white"/>
<path d="M0 3.48013H68.6333C110.007 3.48013 130.693 19.3979 130.693 51.2335C130.693 67.6024 125.344 79.7179 114.647 87.5801C104.078 95.3135 87.9667 99.1801 66.3133 99.1801H40.4067V141.52H0V3.48013ZM90.0933 51.0401C90.0933 45.1113 88.16 40.8579 84.2933 38.2801C80.4267 35.7024 74.3044 34.4135 65.9267 34.4135H40.4067V68.2468H65.54C73.9178 68.2468 80.1044 66.9579 84.1 64.3801C88.0956 61.8024 90.0933 57.3557 90.0933 51.0401Z" fill="white"/>
</svg>
